<mxfile host="app.diagrams.net" modified="2023-11-21T04:54:45.127Z" agent="Mozilla/5.0 (Windows NT 10.0; Win64; x64) AppleWebKit/537.36 (KHTML, like Gecko) Chrome/119.0.0.0 Safari/537.36 Edg/119.0.0.0" etag="Nmp99fCuXjAgsZXszxf5" version="22.1.3" type="device">
  <diagram name="Страница 1" id="X1VuIBabu0pYYO-fKi_C">
    <mxGraphModel dx="1514" dy="831" grid="1" gridSize="10" guides="1" tooltips="1" connect="1" arrows="1" fold="1" page="1" pageScale="1" pageWidth="1169" pageHeight="827" math="0" shadow="0">
      <root>
        <mxCell id="0" />
        <mxCell id="1" parent="0" />
        <mxCell id="5kMvGPbXQQpG_FBIuWni-1" value="Insurance system" style="shape=umlLifeline;perimeter=lifelinePerimeter;whiteSpace=wrap;html=1;container=1;dropTarget=0;collapsible=0;recursiveResize=0;outlineConnect=0;portConstraint=eastwest;newEdgeStyle={&quot;edgeStyle&quot;:&quot;elbowEdgeStyle&quot;,&quot;elbow&quot;:&quot;vertical&quot;,&quot;curved&quot;:0,&quot;rounded&quot;:0};labelBackgroundColor=default;" parent="1" vertex="1">
          <mxGeometry x="620" y="86" width="100" height="554" as="geometry" />
        </mxCell>
        <mxCell id="LrFNyvx7Tn5cQzwZqslB-1" value="" style="html=1;points=[[0,0,0,0,5],[0,1,0,0,-5],[1,0,0,0,5],[1,1,0,0,-5]];perimeter=orthogonalPerimeter;outlineConnect=0;targetShapes=umlLifeline;portConstraint=eastwest;newEdgeStyle={&quot;curved&quot;:0,&quot;rounded&quot;:0};" parent="5kMvGPbXQQpG_FBIuWni-1" vertex="1">
          <mxGeometry x="45" y="145" width="10" height="60" as="geometry" />
        </mxCell>
        <mxCell id="5kMvGPbXQQpG_FBIuWni-3" value="MQ" style="shape=umlLifeline;perimeter=lifelinePerimeter;whiteSpace=wrap;html=1;container=1;dropTarget=0;collapsible=0;recursiveResize=0;outlineConnect=0;portConstraint=eastwest;newEdgeStyle={&quot;edgeStyle&quot;:&quot;elbowEdgeStyle&quot;,&quot;elbow&quot;:&quot;vertical&quot;,&quot;curved&quot;:0,&quot;rounded&quot;:0};" parent="1" vertex="1">
          <mxGeometry x="780" y="85" width="100" height="555" as="geometry" />
        </mxCell>
        <mxCell id="LrFNyvx7Tn5cQzwZqslB-6" value="" style="html=1;points=[[0,0,0,0,5],[0,1,0,0,-5],[1,0,0,0,5],[1,1,0,0,-5]];perimeter=orthogonalPerimeter;outlineConnect=0;targetShapes=umlLifeline;portConstraint=eastwest;newEdgeStyle={&quot;curved&quot;:0,&quot;rounded&quot;:0};" parent="5kMvGPbXQQpG_FBIuWni-3" vertex="1">
          <mxGeometry x="45" y="390" width="10" height="130" as="geometry" />
        </mxCell>
        <mxCell id="5kMvGPbXQQpG_FBIuWni-4" value="Notification Service" style="shape=umlLifeline;perimeter=lifelinePerimeter;whiteSpace=wrap;html=1;container=1;dropTarget=0;collapsible=0;recursiveResize=0;outlineConnect=0;portConstraint=eastwest;newEdgeStyle={&quot;edgeStyle&quot;:&quot;elbowEdgeStyle&quot;,&quot;elbow&quot;:&quot;vertical&quot;,&quot;curved&quot;:0,&quot;rounded&quot;:0};" parent="1" vertex="1">
          <mxGeometry x="960" y="80" width="100" height="555" as="geometry" />
        </mxCell>
        <mxCell id="_3-TRgmvLad44blOpgIH-11" value="" style="html=1;points=[[0,0,0,0,5],[0,1,0,0,-5],[1,0,0,0,5],[1,1,0,0,-5]];perimeter=orthogonalPerimeter;outlineConnect=0;targetShapes=umlLifeline;portConstraint=eastwest;newEdgeStyle={&quot;curved&quot;:0,&quot;rounded&quot;:0};" parent="5kMvGPbXQQpG_FBIuWni-4" vertex="1">
          <mxGeometry x="45" y="425" width="10" height="75" as="geometry" />
        </mxCell>
        <mxCell id="LrFNyvx7Tn5cQzwZqslB-2" value="Клиент" style="shape=umlActor;verticalLabelPosition=bottom;verticalAlign=top;html=1;" parent="1" vertex="1">
          <mxGeometry x="20" y="246" width="30" height="60" as="geometry" />
        </mxCell>
        <mxCell id="LrFNyvx7Tn5cQzwZqslB-3" value="Запрос данных&lt;br style=&quot;border-color: var(--border-color);&quot;&gt;по страховому случаю" style="html=1;verticalAlign=bottom;endArrow=block;curved=0;rounded=0;" parent="1" edge="1">
          <mxGeometry width="80" relative="1" as="geometry">
            <mxPoint x="493.5" y="231" as="sourcePoint" />
            <mxPoint x="660" y="231" as="targetPoint" />
          </mxGeometry>
        </mxCell>
        <mxCell id="LrFNyvx7Tn5cQzwZqslB-5" value="Создание заявки" style="html=1;verticalAlign=bottom;endArrow=block;curved=0;rounded=0;" parent="1" edge="1">
          <mxGeometry x="0.0423" y="6" width="80" relative="1" as="geometry">
            <mxPoint x="330" y="426" as="sourcePoint" />
            <mxPoint x="483.5" y="426" as="targetPoint" />
            <mxPoint as="offset" />
          </mxGeometry>
        </mxCell>
        <mxCell id="LrFNyvx7Tn5cQzwZqslB-10" value="Repair API&amp;nbsp;" style="shape=umlLifeline;perimeter=lifelinePerimeter;whiteSpace=wrap;html=1;container=1;dropTarget=0;collapsible=0;recursiveResize=0;outlineConnect=0;portConstraint=eastwest;newEdgeStyle={&quot;curved&quot;:0,&quot;rounded&quot;:0};" parent="1" vertex="1">
          <mxGeometry x="444" y="86" width="100" height="554" as="geometry" />
        </mxCell>
        <mxCell id="UsgW71boSpDIxjrZu9mr-2" value="" style="html=1;points=[[0,0,0,0,5],[0,1,0,0,-5],[1,0,0,0,5],[1,1,0,0,-5]];perimeter=orthogonalPerimeter;outlineConnect=0;targetShapes=umlLifeline;portConstraint=eastwest;newEdgeStyle={&quot;curved&quot;:0,&quot;rounded&quot;:0};" parent="LrFNyvx7Tn5cQzwZqslB-10" vertex="1">
          <mxGeometry x="45" y="120" width="10" height="100" as="geometry" />
        </mxCell>
        <mxCell id="_3-TRgmvLad44blOpgIH-8" value="" style="html=1;points=[[0,0,0,0,5],[0,1,0,0,-5],[1,0,0,0,5],[1,1,0,0,-5]];perimeter=orthogonalPerimeter;outlineConnect=0;targetShapes=umlLifeline;portConstraint=eastwest;newEdgeStyle={&quot;curved&quot;:0,&quot;rounded&quot;:0};" parent="LrFNyvx7Tn5cQzwZqslB-10" vertex="1">
          <mxGeometry x="45" y="340" width="10" height="50" as="geometry" />
        </mxCell>
        <mxCell id="_3-TRgmvLad44blOpgIH-9" value="Валидация и оформление&amp;nbsp;&lt;br&gt;заказа на ремонт" style="html=1;align=left;spacingLeft=2;endArrow=block;rounded=0;edgeStyle=orthogonalEdgeStyle;curved=0;rounded=0;" parent="LrFNyvx7Tn5cQzwZqslB-10" target="_3-TRgmvLad44blOpgIH-8" edge="1">
          <mxGeometry relative="1" as="geometry">
            <mxPoint x="56" y="340" as="sourcePoint" />
            <Array as="points">
              <mxPoint x="50" y="340" />
              <mxPoint x="80" y="340" />
              <mxPoint x="80" y="390" />
            </Array>
          </mxGeometry>
        </mxCell>
        <mxCell id="LrFNyvx7Tn5cQzwZqslB-12" value="Получает данные &lt;br&gt;по страховому случаю" style="html=1;verticalAlign=bottom;endArrow=block;curved=0;rounded=0;entryX=0;entryY=0;entryDx=0;entryDy=5;entryPerimeter=0;" parent="1" target="_3-TRgmvLad44blOpgIH-4" edge="1">
          <mxGeometry x="0.0076" y="25" width="80" relative="1" as="geometry">
            <mxPoint x="120" y="210" as="sourcePoint" />
            <mxPoint x="150" y="211" as="targetPoint" />
            <mxPoint as="offset" />
          </mxGeometry>
        </mxCell>
        <mxCell id="UsgW71boSpDIxjrZu9mr-48" value="данные&lt;br style=&quot;border-color: var(--border-color);&quot;&gt;по страховому случаю" style="html=1;verticalAlign=bottom;endArrow=open;dashed=1;endSize=8;curved=0;rounded=0;" parent="1" edge="1">
          <mxGeometry x="0.142" y="-10" relative="1" as="geometry">
            <mxPoint x="669.5" y="296" as="sourcePoint" />
            <mxPoint x="504" y="296" as="targetPoint" />
            <mxPoint x="1" as="offset" />
          </mxGeometry>
        </mxCell>
        <mxCell id="_3-TRgmvLad44blOpgIH-1" value="Оформление заказа на ремонт" style="text;html=1;strokeColor=none;fillColor=none;align=center;verticalAlign=middle;whiteSpace=wrap;rounded=0;fontSize=24;" parent="1" vertex="1">
          <mxGeometry x="280" y="20" width="810" height="30" as="geometry" />
        </mxCell>
        <mxCell id="_3-TRgmvLad44blOpgIH-2" value="Создание заявки на ремонт" style="html=1;verticalAlign=bottom;endArrow=block;curved=0;rounded=0;" parent="1" edge="1">
          <mxGeometry y="5" width="80" relative="1" as="geometry">
            <mxPoint x="120" y="406" as="sourcePoint" />
            <mxPoint x="320" y="406" as="targetPoint" />
            <mxPoint as="offset" />
          </mxGeometry>
        </mxCell>
        <mxCell id="_3-TRgmvLad44blOpgIH-3" value="GW&lt;br&gt;&amp;nbsp;Fasade" style="shape=umlLifeline;perimeter=lifelinePerimeter;whiteSpace=wrap;html=1;container=1;dropTarget=0;collapsible=0;recursiveResize=0;outlineConnect=0;portConstraint=eastwest;newEdgeStyle={&quot;curved&quot;:0,&quot;rounded&quot;:0};" parent="1" vertex="1">
          <mxGeometry x="275" y="85" width="100" height="555" as="geometry" />
        </mxCell>
        <mxCell id="_3-TRgmvLad44blOpgIH-4" value="" style="html=1;points=[[0,0,0,0,5],[0,1,0,0,-5],[1,0,0,0,5],[1,1,0,0,-5]];perimeter=orthogonalPerimeter;outlineConnect=0;targetShapes=umlLifeline;portConstraint=eastwest;newEdgeStyle={&quot;curved&quot;:0,&quot;rounded&quot;:0};" parent="_3-TRgmvLad44blOpgIH-3" vertex="1">
          <mxGeometry x="45" y="120" width="10" height="120" as="geometry" />
        </mxCell>
        <mxCell id="USp_0REjnOt93tZvNbZ5-5" value="" style="html=1;points=[[0,0,0,0,5],[0,1,0,0,-5],[1,0,0,0,5],[1,1,0,0,-5]];perimeter=orthogonalPerimeter;outlineConnect=0;targetShapes=umlLifeline;portConstraint=eastwest;newEdgeStyle={&quot;curved&quot;:0,&quot;rounded&quot;:0};" parent="_3-TRgmvLad44blOpgIH-3" vertex="1">
          <mxGeometry x="45" y="315" width="10" height="35" as="geometry" />
        </mxCell>
        <mxCell id="_3-TRgmvLad44blOpgIH-5" value="Запрос данных&lt;br&gt;по страховому случаю" style="html=1;verticalAlign=bottom;endArrow=block;curved=0;rounded=0;entryX=0;entryY=0;entryDx=0;entryDy=5;entryPerimeter=0;" parent="1" edge="1">
          <mxGeometry x="0.0076" y="25" width="80" relative="1" as="geometry">
            <mxPoint x="330" y="220" as="sourcePoint" />
            <mxPoint x="490" y="220" as="targetPoint" />
            <mxPoint as="offset" />
          </mxGeometry>
        </mxCell>
        <mxCell id="_3-TRgmvLad44blOpgIH-6" value="данные&lt;br style=&quot;border-color: var(--border-color);&quot;&gt;по страховому случаю" style="html=1;verticalAlign=bottom;endArrow=open;dashed=1;endSize=8;curved=0;rounded=0;" parent="1" edge="1">
          <mxGeometry x="0.142" y="-10" relative="1" as="geometry">
            <mxPoint x="496.5" y="306" as="sourcePoint" />
            <mxPoint x="331" y="306" as="targetPoint" />
            <mxPoint x="1" as="offset" />
          </mxGeometry>
        </mxCell>
        <mxCell id="_3-TRgmvLad44blOpgIH-7" value="данные&lt;br style=&quot;border-color: var(--border-color);&quot;&gt;по страховому случаю" style="html=1;verticalAlign=bottom;endArrow=open;dashed=1;endSize=8;curved=0;rounded=0;" parent="1" edge="1">
          <mxGeometry x="0.142" y="-10" relative="1" as="geometry">
            <mxPoint x="325.5" y="326" as="sourcePoint" />
            <mxPoint x="120" y="326" as="targetPoint" />
            <mxPoint x="1" as="offset" />
          </mxGeometry>
        </mxCell>
        <mxCell id="_3-TRgmvLad44blOpgIH-10" value="Заявка на ремонт (publish)" style="html=1;verticalAlign=bottom;endArrow=block;curved=0;rounded=0;" parent="1" target="LrFNyvx7Tn5cQzwZqslB-6" edge="1">
          <mxGeometry width="80" relative="1" as="geometry">
            <mxPoint x="500" y="476" as="sourcePoint" />
            <mxPoint x="653.5" y="476" as="targetPoint" />
          </mxGeometry>
        </mxCell>
        <mxCell id="_3-TRgmvLad44blOpgIH-13" value="Уведомление клиента &lt;br&gt;о создании заявки на ремонт&lt;br&gt;(consume)" style="html=1;verticalAlign=bottom;endArrow=block;curved=0;rounded=0;dashed=1;" parent="1" edge="1">
          <mxGeometry y="10" width="80" relative="1" as="geometry">
            <mxPoint x="840" y="510" as="sourcePoint" />
            <mxPoint x="1000" y="510" as="targetPoint" />
            <mxPoint as="offset" />
          </mxGeometry>
        </mxCell>
        <mxCell id="USp_0REjnOt93tZvNbZ5-12" value="Уведомление СТО &lt;br&gt;о новой заявке на ремонт&lt;br&gt;(consume)&amp;nbsp;" style="html=1;verticalAlign=bottom;endArrow=block;curved=0;rounded=0;dashed=1;" parent="1" edge="1">
          <mxGeometry width="80" relative="1" as="geometry">
            <mxPoint x="840" y="560" as="sourcePoint" />
            <mxPoint x="1000" y="560" as="targetPoint" />
          </mxGeometry>
        </mxCell>
      </root>
    </mxGraphModel>
  </diagram>
</mxfile>
